# xmcd CD database file
#
# Track frame offsets:
#	182
#	18332
#	35275
#	49897
#	69492
#	88937
#	118452
#	135207
#	157920
#	170707
#	183982
#	200677
#	218480
#
# Disc length: 3227 seconds
#
# Revision: 4
# Processed by: cddbd v1.5.1PL0 Copyright (c) Steve Scherf et al.
# Submitted via: jetAudio 5
#
DISCID=b30c990d
DTITLE=The Manhattan Transfer - Live
DYEAR=1900
DGENRE=Blues
TTITLE0=Four Brothers
TTITLE1=Rambo
TTITLE2=Meet  Benny Bailey
TTITLE3=Airegin
TTITLE4=To You
TTITLE5=Sing Joy Spring
TTITLE6=Move
TTITLE7=That's Killer Joe
TTITLE8=The Duke Of Dubuque
TTITLE9=Gloria
TTITLE10=On The Boulevard
TTITLE11=Shaker Song
TTITLE12=Ray's Rockhouse
EXTD=Recorde live at Nakano Sun Plaza Hall, Tokyo on February 20 and 21, 
EXTD=1986Produced by Tim Hauser ID3G: 0
EXTT0=
EXTT1=
EXTT2=
EXTT3=
EXTT4=
EXTT5=
EXTT6=
EXTT7=
EXTT8=
EXTT9=
EXTT10=
EXTT11=
EXTT12=
PLAYORDER=
